# xmcd CD database file
#
# Track frame offsets:
#	150
#	128187
#	152453
#	173250
#
# Disc length: 2515 seconds
#
# Revision: 0
# Processed by: cddbd v1.5.1PL2 Copyright (c) Steve Scherf et al.
# Submitted via: CDex 1.51
#
DISCID=2009d104
DTITLE=Bolivian Jazz - Coca
DYEAR=1996
DGENRE=Jazz
TTITLE0=Coca
TTITLE1=Duende hechicero
TTITLE2=Cascada de estrellas
TTITLE3=Variaciones sobre El condor pasa
EXTD=YEAR: 1996
EXTT0=
EXTT1=
EXTT2=
EXTT3=
PLAYORDER=
